<svg width="288" height="50" viewBox="0 0 288 50" fill="none" xmlns="http://www.w3.org/2000/svg">
<rect width="228" height="50" rx="25" fill="#5661F6"/>
<path d="M104.992 18.8V30.112H103.376L96.96 20.976V30H95.504V18.688H97.12L103.52 27.824V18.8H104.992ZM112.948 27.872L114.132 28.224C113.503 29.568 112.447 30.24 110.964 30.24C109.823 30.24 108.895 29.8667 108.18 29.12C107.476 28.3627 107.124 27.408 107.124 26.256C107.124 25.1253 107.465 24.176 108.148 23.408C108.831 22.64 109.705 22.256 110.772 22.256C111.785 22.256 112.639 22.6027 113.332 23.296C114.025 23.9893 114.388 24.9493 114.42 26.176V26.592H108.532C108.596 27.328 108.847 27.9253 109.284 28.384C109.721 28.8427 110.281 29.072 110.964 29.072C111.892 29.072 112.553 28.672 112.948 27.872ZM110.804 23.344C110.175 23.344 109.663 23.5467 109.268 23.952C108.873 24.3467 108.633 24.9013 108.548 25.616H112.964C112.921 24.816 112.681 24.24 112.244 23.888C111.817 23.5253 111.337 23.344 110.804 23.344ZM126.506 22.496L124.074 30.096H122.778L120.906 24.288L119.018 30.096H117.69L115.274 22.496H116.746L118.442 28.128H118.474L120.314 22.496H121.61L123.434 28.128H123.482L125.162 22.496H126.506ZM134.6 22.256C136.413 22.256 137.554 23.088 138.024 24.752L136.664 24.96C136.333 23.9787 135.656 23.488 134.632 23.488C133.917 23.488 133.362 23.744 132.968 24.256C132.573 24.768 132.376 25.4347 132.376 26.256C132.376 27.0667 132.573 27.728 132.968 28.24C133.362 28.752 133.917 29.008 134.632 29.008C135.634 29.008 136.312 28.5173 136.664 27.536L137.976 27.872C137.73 28.64 137.325 29.2267 136.76 29.632C136.194 30.0373 135.501 30.24 134.68 30.24C133.56 30.24 132.658 29.8667 131.976 29.12C131.304 28.3627 130.968 27.4027 130.968 26.24C130.968 25.0667 131.309 24.112 131.992 23.376C132.674 22.6293 133.544 22.256 134.6 22.256ZM139.684 30V18.8H141.076V23.568C141.279 23.184 141.593 22.8693 142.02 22.624C142.457 22.3787 142.932 22.256 143.444 22.256C144.265 22.256 144.911 22.5173 145.38 23.04C145.86 23.5627 146.1 24.2827 146.1 25.2V30H144.708V25.504C144.708 24.8533 144.564 24.3573 144.276 24.016C143.999 23.664 143.604 23.488 143.092 23.488C142.516 23.488 142.036 23.696 141.652 24.112C141.268 24.5173 141.076 25.04 141.076 25.68V30H139.684ZM148.772 29.136C148.111 28.3893 147.78 27.4293 147.78 26.256C147.78 25.0827 148.116 24.1227 148.788 23.376C149.46 22.6293 150.314 22.256 151.348 22.256C151.914 22.256 152.415 22.3733 152.852 22.608C153.3 22.832 153.642 23.1413 153.876 23.536V22.496H155.268V30H153.988V28.752H153.94C153.684 29.232 153.327 29.6 152.868 29.856C152.41 30.112 151.898 30.24 151.332 30.24C150.298 30.24 149.444 29.872 148.772 29.136ZM149.828 24.272C149.402 24.7947 149.188 25.456 149.188 26.256C149.188 27.056 149.407 27.712 149.844 28.224C150.292 28.736 150.868 28.992 151.572 28.992C152.287 28.992 152.852 28.7413 153.268 28.24C153.695 27.728 153.908 27.0667 153.908 26.256C153.908 25.4347 153.695 24.768 153.268 24.256C152.852 23.744 152.287 23.488 151.572 23.488C150.847 23.488 150.266 23.7493 149.828 24.272ZM159.509 23.696V30H158.117V23.696H156.661V22.496H158.117V20.096H159.509V22.496H161.797V23.696H159.509Z" fill="white"/>
<path d="M68.25 25H81.75" stroke="white" stroke-width="1.5" stroke-linecap="round" stroke-linejoin="round"/>
<path d="M75 31.75V18.25" stroke="white" stroke-width="1.5" stroke-linecap="round" stroke-linejoin="round"/>
<rect x="238" width="50" height="50" rx="25" fill="black"/>
<path d="M262.25 31C265.978 31 269 27.9779 269 24.25C269 20.5221 265.978 17.5 262.25 17.5C258.522 17.5 255.5 20.5221 255.5 24.25C255.5 27.9779 258.522 31 262.25 31Z" stroke="white" stroke-width="1.5" stroke-linecap="round" stroke-linejoin="round"/>
<path d="M269.375 32.5C269.996 32.5 270.5 31.9963 270.5 31.375C270.5 30.7537 269.996 30.25 269.375 30.25C268.754 30.25 268.25 30.7537 268.25 31.375C268.25 31.9963 268.754 32.5 269.375 32.5Z" stroke="white" stroke-width="1.5" stroke-linecap="round" stroke-linejoin="round"/>
</svg>
